<?xml version="1.0" encoding="UTF-8"?>
<svg width="109px" height="25px" viewBox="0 0 109 25" version="1.1" xmlns="http://www.w3.org/2000/svg" xmlns:xlink="http://www.w3.org/1999/xlink">
    <title>highlighted site title</title>
    <g id="desktop" stroke="none" stroke-width="1" fill="none" fill-rule="evenodd">
        <g id="Desktop---Home" transform="translate(-24.000000, -21.000000)">
            <g id="highlighted-site-title" transform="translate(24.000000, 21.000000)">
                <rect id="highlight" fill="#D88A93" x="0" y="16" width="109" height="9"></rect>
                <path d="M6.325,20.2 C7.5,20.2 8.725,19.525 8.725,17.625 L8.725,6.925 L7.15,6.925 L7.15,18.05 C7.15,18.95 7.075,19.95 6.3,19.95 C5.575,19.95 5.05,19.625 5.05,19.075 C5.05,18.5 5.525,18.325 5.525,17.6 C5.525,17.175 5.225,16.875 4.8,16.875 C4.325,16.875 3.775,17.275 3.775,17.875 C3.775,18.975 4.85,20.2 6.325,20.2 Z M13.5,20.2 C14.375,20.2 15.05,19.75 15.525,19.075 L15.525,20 L17.1,20 L17.1,12.1 L15.525,12.1 L15.525,18.65 C15.075,19.425 14.4,19.95 13.5,19.95 C12.275,19.95 12.05,18.7 12.05,17.55 L12.05,12.1 L10.525,12.1 L10.525,17 C10.525,19.25 11.6,20.2 13.5,20.2 Z M20.725,20 L20.725,6.925 L19.15,6.925 L19.15,20 L20.725,20 Z M26.65,20.2 C28.125,20.2 29.3,19.325 29.95,17.95 L29.675,17.9 C28.95,19.5 27.7,19.95 26.525,19.95 C25.125,19.95 24.275,19.05 24.2,16.2 L30.325,16.2 C30.3,13.7 28.625,11.85 26.525,11.85 C24.225,11.85 22.375,13.6 22.375,16.25 C22.475,18.625 24.125,20.2 26.65,20.2 Z M28.5,15.95 L24.2,15.95 C24.2,13.375 24.825,12.1 26.525,12.1 C27.85,12.1 28.475,13.4 28.5,15.95 Z M34.6,20.2 C35.5,20.2 37.525,19.7 37.525,17.775 C37.525,15.425 33.3,15.025 33.3,13.35 C33.3,12.925 33.7,12.1 34.75,12.1 C35.7,12.1 35.8,12.625 35.8,13.35 C35.8,13.85 35.95,14.325 36.45,14.325 C36.8,14.325 37.15,13.9 37.15,13.475 C37.15,12.65 36.025,11.85 34.775,11.85 C33.125,11.85 32.075,12.925 32.075,13.975 C32.075,16 36.2,16.625 36.2,18.775 C36.2,19.575 35.425,19.95 34.6,19.95 C33.625,19.95 32.85,19.3 32.85,18.775 C32.85,18.175 33.075,18.05 33.075,17.475 C33.075,17.225 32.825,16.925 32.45,16.925 C32.025,16.925 31.7,17.275 31.725,17.825 C31.775,19.05 33.05,20.2 34.6,20.2 Z M46,20 L46,13.5 L52.1,13.5 L52.1,20 L53.675,20 L53.675,6.925 L52.1,6.925 L52.1,13.25 L46,13.25 L46,6.925 L44.425,6.925 L44.425,20 L46,20 Z M59.85,19.375 L59.85,20 L61.425,20 L61.425,14.85 C61.425,12.65 60.1,11.85 58.475,11.85 C57.5,11.85 55.95,12.35 55.95,13.25 C55.95,13.7 56.25,14.125 56.75,14.125 C57.2,14.125 57.55,13.775 57.55,13.325 C57.55,13.075 57.45,12.875 57.275,12.7 C57.225,12.65 57.1,12.6 57.1,12.55 C57.1,12.375 57.75,12.1 58.425,12.1 C59.725,12.1 59.85,12.575 59.85,14.875 C59.85,16.075 55.15,16.075 55.5,18.675 C55.7,20.125 58.4,20.85 59.85,19.375 Z M56.95,18.55 C56.775,16.85 58.725,16.175 59.85,15.55 L59.85,18.975 C58.85,20.25 57.075,19.675 56.95,18.55 Z M65.05,20 L65.05,6.925 L63.475,6.925 L63.475,20 L65.05,20 Z M69.725,20.2 C70.625,20.2 72.65,19.7 72.65,17.775 C72.65,15.425 68.425,15.025 68.425,13.35 C68.425,12.925 68.825,12.1 69.875,12.1 C70.825,12.1 70.925,12.625 70.925,13.35 C70.925,13.85 71.075,14.325 71.575,14.325 C71.925,14.325 72.275,13.9 72.275,13.475 C72.275,12.65 71.15,11.85 69.9,11.85 C68.25,11.85 67.2,12.925 67.2,13.975 C67.2,16 71.325,16.625 71.325,18.775 C71.325,19.575 70.55,19.95 69.725,19.95 C68.75,19.95 67.975,19.3 67.975,18.775 C67.975,18.175 68.2,18.05 68.2,17.475 C68.2,17.225 67.95,16.925 67.575,16.925 C67.15,16.925 66.825,17.275 66.85,17.825 C66.9,19.05 68.175,20.2 69.725,20.2 Z M76.875,20.2 C77.8,20.2 78.675,19.475 78.95,18.4 L78.725,18.325 C78.5,19.15 77.85,19.9 77.125,19.9 C76.45,19.9 76.275,18.95 76.275,18.05 L76.275,12.35 L78.775,12.35 L78.775,12.1 L76.275,12.1 L76.275,9.575 L74.7,9.575 L74.7,12.1 L73.275,12.1 L73.275,12.35 L74.7,12.35 L74.7,17.625 C74.7,19.25 75.175,20.2 76.875,20.2 Z M84.1,20.2 C85.575,20.2 86.75,19.325 87.4,17.95 L87.125,17.9 C86.4,19.5 85.15,19.95 83.975,19.95 C82.575,19.95 81.725,19.05 81.65,16.2 L87.775,16.2 C87.75,13.7 86.075,11.85 83.975,11.85 C81.675,11.85 79.825,13.6 79.825,16.25 C79.925,18.625 81.575,20.2 84.1,20.2 Z M85.95,15.95 L81.65,15.95 C81.65,13.375 82.275,12.1 83.975,12.1 C85.3,12.1 85.925,13.4 85.95,15.95 Z M93.55,19.375 L93.55,20 L95.125,20 L95.125,14.85 C95.125,12.65 93.8,11.85 92.175,11.85 C91.2,11.85 89.65,12.35 89.65,13.25 C89.65,13.7 89.95,14.125 90.45,14.125 C90.9,14.125 91.25,13.775 91.25,13.325 C91.25,13.075 91.15,12.875 90.975,12.7 C90.925,12.65 90.8,12.6 90.8,12.55 C90.8,12.375 91.45,12.1 92.125,12.1 C93.425,12.1 93.55,12.575 93.55,14.875 C93.55,16.075 88.85,16.075 89.2,18.675 C89.4,20.125 92.1,20.85 93.55,19.375 Z M90.65,18.55 C90.475,16.85 92.425,16.175 93.55,15.55 L93.55,18.975 C92.55,20.25 90.775,19.675 90.65,18.55 Z M101.05,20.175 C101.85,20.175 102.6,19.95 103.15,19.5 L103.15,20 L104.75,20 L104.75,6.925 L103.15,6.925 L103.15,12.525 C102.6,12.075 101.85,11.825 101.05,11.825 C98.45,11.825 96.775,13.5 96.775,16 C96.775,18.5 98.45,20.175 101.05,20.175 Z M100.925,19.925 C99.5,19.925 98.625,18.95 98.6,16 C98.625,13.05 99.5,12.075 100.925,12.075 C101.7,12.075 102.55,12.225 103.15,12.85 L103.15,19.175 C102.55,19.775 101.7,19.925 100.925,19.925 Z" id="JulesHalstead" fill="#010015" fill-rule="nonzero"></path>
            </g>
        </g>
    </g>
</svg>